<svg width="30" height="30" viewBox="0 0 30 30" fill="none" xmlns="http://www.w3.org/2000/svg">
<path d="M29.9996 15.3341C29.9996 14.3133 29.9146 13.2925 29.7446 12.2925H15.3105V18.0632H23.5798C23.2397 19.9173 22.1343 21.5839 20.5187 22.6256V26.3755H25.4505C28.3415 23.7714 29.9996 19.9173 29.9996 15.3341Z" fill="#4285F4"/>
<path d="M15.3112 29.9999C19.4352 29.9999 22.9215 28.6666 25.4511 26.375L20.5193 22.6251C19.1376 23.5418 17.3732 24.0626 15.3112 24.0626C11.3147 24.0626 7.93475 21.4168 6.72306 17.8752H1.64246V21.7501C4.2359 26.8125 9.52908 29.9999 15.3112 29.9999Z" fill="#34A853"/>
<path d="M6.72383 17.8754C6.086 16.0213 6.086 14.0005 6.72383 12.1256V8.27148H1.64242C-0.547474 12.5005 -0.547474 17.5004 1.64242 21.7295L6.72383 17.8754Z" fill="#FBBC04"/>
<path d="M15.3112 5.93826C17.5007 5.89659 19.6053 6.70907 21.1783 8.1882L25.5574 3.89664C22.7727 1.35504 19.1163 -0.040759 15.3112 0.000906664C9.52908 0.000906664 4.2359 3.20916 1.64246 8.27153L6.72306 12.1464C7.93475 8.58402 11.3147 5.93826 15.3112 5.93826Z" fill="#EA4335"/>
</svg>
